<svg width="60" height="60" viewBox="0 0 60 60" fill="none" xmlns="http://www.w3.org/2000/svg">
<path d="M24.4459 8.18181C26.0011 5.48809 29.2289 4.36202 32.06 5.35825C33.4832 5.83297 34.745 6.81005 35.5541 8.21152L53.5778 39.4294C56.5055 44.5004 54.7681 50.9846 49.6971 53.9123C48.683 54.4978 47.3861 54.1503 46.8006 53.1362L29.9914 24.0218L13.1994 53.1065C12.6139 54.1206 11.3171 54.4681 10.3029 53.8826C5.23193 50.9549 3.49448 44.4707 6.42219 39.3997L24.4459 8.18181Z" fill="url(#paint0_linear_1227_29706)"/>
<path d="M30.0211 54.1941C33.5344 54.1941 36.3824 51.346 36.3824 47.8328C36.3824 44.3196 33.5344 41.4715 30.0211 41.4715C26.5079 41.4715 23.6598 44.3196 23.6598 47.8328C23.6598 51.346 26.5079 54.1941 30.0211 54.1941Z" fill="url(#paint1_linear_1227_29706)"/>
<defs>
<linearGradient id="paint0_linear_1227_29706" x1="55" y1="54.1967" x2="-4.344" y2="36.7095" gradientUnits="userSpaceOnUse">
<stop stop-color="#06C149"/>
<stop offset="1" stop-color="#1ADF61"/>
</linearGradient>
<linearGradient id="paint1_linear_1227_29706" x1="55" y1="54.1967" x2="-4.344" y2="36.7095" gradientUnits="userSpaceOnUse">
<stop stop-color="#06C149"/>
<stop offset="1" stop-color="#1ADF61"/>
</linearGradient>
</defs>
</svg>
